<svg width="32" height="17" viewBox="0 0 32 17" fill="none" xmlns="http://www.w3.org/2000/svg">
<path d="M0.000271981 15.3976H1.11765V10.8695L2.84757 14.817C3.05157 15.2949 3.33092 15.4638 3.879 15.4638C4.42708 15.4638 4.69581 15.2949 4.89981 14.817L6.62974 10.8695V15.3976H7.74711V10.8771C7.74711 10.4361 7.57521 10.2225 7.22052 10.1126C6.37161 9.84072 5.80204 10.076 5.54418 10.6641L3.84663 14.56L2.20293 10.6638C1.95568 10.076 1.37551 9.84072 0.526593 10.1123C0.171904 10.2225 0 10.4358 0 10.8768L0.000271981 15.3976ZM8.67654 11.7116H9.79365V14.2063C9.78331 14.3417 9.83608 14.6599 10.4481 14.67C10.7603 14.675 12.8585 14.67 12.8781 14.67V11.6993H13.998C14.0031 11.6993 13.9969 15.7504 13.9969 15.7672C14.0029 16.7664 12.7889 16.9833 12.2291 17H8.70075V16.2285C8.70673 16.2285 12.2267 16.2294 12.2354 16.2282C12.9548 16.1504 12.8697 15.7836 12.8694 15.6603V15.3594H10.4946C9.38972 15.349 8.68579 14.8542 8.67681 14.2848C8.67627 14.2326 8.70102 11.7367 8.67654 11.7116Z" fill="white"/>
<path d="M14 14.3524H17.234C17.6126 14.3524 17.9806 14.2861 18.2725 14.1713C18.759 13.984 18.9969 13.7301 18.9969 13.3973V12.7082C18.9969 12.4362 18.7267 12.1821 18.1966 12.0131C17.9154 11.9222 17.5691 11.8743 17.2337 11.8743H15.8708C15.4166 11.8743 15.2003 11.7595 15.1463 11.5056C15.1357 11.4753 15.1357 11.4512 15.1357 11.4209V10.9916C15.1357 10.9675 15.1357 10.9432 15.1463 10.9131C15.2003 10.7196 15.3194 10.6652 15.7197 10.6349L15.8278 10.629H19.0402V10.0005H15.882C15.4278 10.0005 15.1899 10.0246 14.9736 10.079C14.3031 10.2543 14.0107 10.5323 14.0107 11.016V11.566C14.0107 11.9893 14.5843 12.3519 15.5466 12.4366C15.655 12.4424 15.7629 12.4488 15.8711 12.4488H17.0393C17.0826 12.4488 17.1258 12.4488 17.1584 12.4546C17.5154 12.4787 17.6666 12.5333 17.775 12.6419C17.8028 12.6634 17.8248 12.6896 17.8397 12.7187C17.8545 12.7479 17.8619 12.7793 17.8612 12.811V13.3613C17.8612 13.4276 17.8073 13.5123 17.6991 13.5848C17.6019 13.6574 17.4396 13.7058 17.2233 13.718L17.1042 13.7239H14V14.3524ZM26.0141 13.2584C26.0141 13.9051 26.5874 14.2677 27.7444 14.3405C27.8525 14.3465 27.9607 14.3524 28.0688 14.3524H31V13.7239H28.0475C27.3877 13.7239 27.1391 13.5848 27.1391 13.2522V10H26.0143L26.0141 13.2584ZM19.7148 13.291V11.0495C19.7148 10.4802 20.1917 10.1347 21.1346 10.0257C21.2351 10.0136 21.3365 10.0076 21.438 10.0076H23.5732C23.6817 10.0076 23.7791 10.0135 23.8873 10.0257C24.8302 10.1347 25.3074 10.48 25.3074 11.0495V13.291C25.3074 13.7533 25.1048 14.0003 24.638 14.1615L25.7463 15H24.4401L23.5437 14.3215L22.6413 14.3694H21.438C21.2144 14.3682 20.9921 14.3418 20.7771 14.2907C20.0617 14.1273 19.7148 13.8121 19.7148 13.291ZM20.9287 13.2366C20.9287 13.2669 20.9394 13.2974 20.9504 13.3337C21.0153 13.5943 21.3082 13.7396 21.7523 13.7396H22.7741L21.8355 13.0291H23.1418L23.9601 13.6489C24.1112 13.5812 24.2103 13.4783 24.2451 13.3459C24.2558 13.3156 24.2558 13.2853 24.2558 13.255V11.1046C24.2558 11.0805 24.2558 11.0499 24.2451 11.0196C24.18 10.7772 23.8873 10.6381 23.4539 10.6381H21.752C21.2537 10.6381 20.9285 10.8199 20.9285 11.1046L20.9287 13.2366Z" fill="white"/>
<path d="M31.0506 9.28723C30.3962 9.269 29.8962 9.33109 29.4686 9.51471C29.347 9.56702 29.1534 9.56834 29.1337 9.72342C29.2003 9.79502 29.2107 9.90149 29.2638 9.9892C29.3659 10.1575 29.5383 10.3831 29.692 10.5012C29.8597 10.6304 30.0328 10.7688 30.2132 10.8809C30.5333 11.0801 30.891 11.1937 31.1996 11.3929C31.3813 11.5107 31.5617 11.6587 31.7393 11.7915C31.8271 11.8568 31.8857 11.959 32 12V11.9812C31.9401 11.9036 31.9246 11.7968 31.8696 11.7155L31.6276 11.4687C31.3909 11.1485 31.0908 10.8677 30.7712 10.6341C30.5167 10.4478 29.947 10.1961 29.8408 9.89409L29.8221 9.87533C30.0025 9.85446 30.214 9.78788 30.3804 9.74244C30.6603 9.66583 30.9104 9.68564 31.1994 9.60955L31.5902 9.49542V9.41986C31.4443 9.26715 31.3399 9.06478 31.1807 8.9266C30.7642 8.56492 30.3091 8.2035 29.8408 7.90179C29.5811 7.73482 29.2599 7.62623 28.9844 7.48462C28.8922 7.4368 28.7294 7.41223 28.668 7.33271C28.5231 7.14487 28.4446 6.90682 28.3328 6.68781C28.0943 6.21466 27.8708 5.73374 27.6629 5.24582C27.5219 4.9169 27.4296 4.59246 27.2536 4.29736C26.4084 2.881 25.4987 2.02606 24.0895 1.18592C23.7897 1.00706 23.4286 0.936781 23.0474 0.844577L22.4331 0.806533C22.3084 0.75343 22.1783 0.597554 22.0609 0.521994C21.5939 0.221338 20.3965 -0.432548 20.0507 0.427411C19.8325 0.97007 20.3773 1.49952 20.5719 1.77455C20.7085 1.96741 20.8837 2.18352 20.9814 2.40043C21.0457 2.54309 21.0566 2.68602 21.1118 2.83688C21.2468 3.20834 21.3648 3.61282 21.5397 3.95602C21.6281 4.12986 21.7258 4.31295 21.8375 4.46829C21.9059 4.5634 22.0236 4.60568 22.042 4.75283C21.9272 4.91663 21.9205 5.17132 21.8559 5.37871C21.5651 6.3137 21.6747 7.4759 22.098 8.16783C22.2278 8.38051 22.5337 8.83599 22.9541 8.66109C23.3218 8.50838 23.2399 8.03521 23.3452 7.61751C23.369 7.52319 23.3542 7.45345 23.4009 7.39004V7.40906L23.736 8.09201C23.984 8.49914 24.4239 8.92423 24.7968 9.21141C24.9902 9.36015 25.1426 9.61774 25.3924 9.70466V9.68538H25.374C25.3253 9.60849 25.2499 9.57679 25.1877 9.51471C25.042 9.36913 24.88 9.18842 24.7598 9.02145C24.4205 8.55224 24.1209 8.03838 23.8477 7.50364C23.7174 7.24843 23.6041 6.9668 23.4942 6.70683C23.4517 6.6067 23.4522 6.45505 23.3641 6.40353C23.2433 6.59375 23.0663 6.74778 22.973 6.97261C22.8242 7.33192 22.805 7.77022 22.7498 8.22464L22.7125 8.24339C22.4531 8.17972 22.3621 7.9076 22.2657 7.67431C22.022 7.08436 21.9767 6.13405 22.1913 5.4548C22.2468 5.27885 22.4974 4.72536 22.3958 4.56287C22.3473 4.40092 22.1874 4.3074 22.0982 4.18322C21.9813 4.01707 21.8815 3.83902 21.8005 3.65193C21.6009 3.19196 21.5078 2.67546 21.2982 2.21021C21.1976 1.98775 21.0281 1.76292 20.8887 1.5653C20.7344 1.34602 20.5616 1.18486 20.4418 0.920138C20.3993 0.826084 20.3415 0.675227 20.4045 0.578531C20.4245 0.513274 20.4532 0.486062 20.5165 0.464662C20.6243 0.379855 20.9249 0.492932 21.0374 0.540487C21.336 0.667037 21.5851 0.787246 21.838 0.957917C21.9593 1.04008 22.0819 1.1986 22.2289 1.24246H22.3963C22.6583 1.30375 22.952 1.26121 23.1967 1.33704C23.6295 1.47125 24.0172 1.6797 24.3692 1.90638C25.4419 2.59699 26.3188 3.5798 26.919 4.7523C27.0154 4.9412 27.0574 5.12112 27.1422 5.32138C27.3137 5.72507 27.5299 6.14065 27.7004 6.53563C27.8707 6.92954 28.0369 7.32716 28.2776 7.65503C28.4041 7.82728 28.8929 7.91975 29.1151 8.01539C29.2708 8.0825 29.5259 8.15251 29.6733 8.24286C29.9551 8.41618 30.2282 8.62251 30.4923 8.81221C30.6243 8.90785 31.0304 9.11577 31.0506 9.28723ZM22.7312 2.05909C22.6183 2.0572 22.5057 2.06999 22.396 2.09713V2.11589H22.4147C22.4798 2.25248 22.5946 2.34019 22.6752 2.4575L22.8615 2.8559L22.8799 2.83714C22.9953 2.75445 23.0479 2.62209 23.0474 2.41972C23.001 2.37005 22.9942 2.30796 22.9543 2.24904C22.9015 2.16979 22.7983 2.1254 22.7312 2.05909Z" fill="white"/>
</svg>
