<svg width="23" height="22" viewBox="0 0 23 22" fill="none" xmlns="http://www.w3.org/2000/svg">
<path d="M8.55605 16.8643C8.55605 16.8643 7.69948 17.3411 9.16645 17.502C10.9439 17.6962 11.8522 17.6683 13.8105 17.3143C13.8105 17.3143 14.3264 17.6228 15.0455 17.8902C10.6541 19.6897 5.10731 17.7859 8.55605 16.8643ZM8.01914 14.5156C8.01914 14.5156 7.05817 15.1961 8.5264 15.3415C10.4252 15.529 11.9243 15.5443 14.5197 15.0665C14.5197 15.0665 14.8778 15.4145 15.4419 15.6046C10.1335 17.0896 4.22109 15.7215 8.01914 14.5156Z" fill="white"/>
<path d="M12.5429 10.5312C13.6255 11.7231 12.259 12.7948 12.259 12.7948C12.259 12.7948 15.0062 11.4385 13.7448 9.73934C12.5662 8.15551 11.6628 7.36884 16.5542 4.65527C16.5542 4.65545 8.876 6.48918 12.5429 10.5312Z" fill="white"/>
<path d="M18.3499 18.6017C18.3499 18.6017 18.984 19.1019 17.6513 19.4884C15.1173 20.2227 7.10252 20.444 4.87655 19.5178C4.07676 19.1847 5.57715 18.7229 6.04919 18.6254C6.54136 18.5235 6.82239 18.5421 6.82239 18.5421C5.9324 17.9427 1.07005 19.7194 4.35294 20.229C13.3052 21.6171 20.6716 19.6039 18.3499 18.6017ZM8.96822 12.0816C8.96822 12.0816 4.89183 13.0079 7.52479 13.3446C8.63669 13.4869 10.8522 13.4542 12.9174 13.2885C14.6047 13.1529 16.2979 12.8633 16.2979 12.8633C16.2979 12.8633 15.7034 13.1072 15.2729 13.388C11.1326 14.4298 3.1361 13.9446 5.43843 12.8796C7.38481 11.9792 8.96822 12.0816 8.96822 12.0816ZM16.281 15.9913C20.4894 13.9001 18.5434 11.8903 17.1851 12.161C16.8531 12.2272 16.7041 12.2848 16.7041 12.2848C16.7041 12.2848 16.8277 12.0993 17.0635 12.0196C19.7504 11.1164 21.8164 14.6842 16.1969 16.0973C16.1969 16.097 16.2614 16.0411 16.281 15.9913Z" fill="white"/>
<path d="M13.7436 0.272461C13.7436 0.272461 16.0737 2.50271 11.5329 5.9311C7.89131 8.68213 10.7025 10.2503 11.5316 12.0428C9.40572 10.2084 7.84639 8.59327 8.89235 7.09023C10.4283 4.88438 14.6835 3.81446 13.7436 0.272461Z" fill="white"/>
<path d="M9.38188 21.6599C13.4205 21.9069 19.6241 21.5224 19.7709 19.6943C19.7709 19.6943 19.4886 20.3873 16.4328 20.9372C12.9853 21.558 8.73249 21.4856 6.21094 21.0874C6.21094 21.0876 6.72754 21.4966 9.38188 21.6599Z" fill="white"/>
</svg>
