<svg width="71" height="47" viewBox="0 0 71 47" fill="none" xmlns="http://www.w3.org/2000/svg">
<path d="M42.6688 21.4465C42.6628 20.6051 42.6901 19.795 42.6422 18.9892C42.5882 18.0803 42.0413 17.5906 41.1062 17.5321C40.8913 17.5187 40.6747 17.5301 40.4339 17.5301C40.4339 16.7632 40.4339 16.0179 40.4339 15.2384C41.6097 15.2227 42.7885 15.1485 43.8753 15.685C44.9416 16.2112 45.5118 17.1156 45.5621 18.2433C45.6411 20.0117 45.619 21.7845 45.6319 23.5555C45.6383 24.4352 45.9377 24.7386 46.8324 24.7382C47.0248 24.7382 47.2172 24.7382 47.435 24.7382C47.435 25.5142 47.435 26.2725 47.435 27.0876C47.2112 27.0876 46.9783 27.0866 46.7453 27.0877C45.9762 27.0915 45.6366 27.4149 45.6352 28.1568C45.6321 29.7074 45.6562 31.2584 45.6211 32.8082C45.6085 33.3643 45.5295 33.94 45.3551 34.4674C44.9206 35.7809 43.8557 36.3727 42.5242 36.5228C41.8421 36.5997 41.1431 36.5363 40.431 36.5363C40.431 35.8199 40.431 35.0718 40.431 34.2844C40.6903 34.2844 40.9378 34.2953 41.1841 34.2824C41.9974 34.2399 42.5636 33.7477 42.6297 32.9601C42.6823 32.3327 42.6612 31.6993 42.6682 31.0685C42.6808 29.9283 42.6651 28.7871 42.7088 27.648C42.7431 26.7553 43.1025 26.2964 43.9247 25.9326C43.9014 25.9074 43.8839 25.8713 43.856 25.8606C43.0488 25.5524 42.7378 24.916 42.7044 24.1361C42.6664 23.2517 42.6784 22.3652 42.6688 21.4465Z" fill="#FDFDFD"/>
<path d="M29.7707 35.3181C29.7707 35.7473 29.7707 36.1433 29.7707 36.5608C28.8103 36.577 27.8791 36.6205 26.9687 36.3676C25.6245 35.994 24.7285 34.9674 24.6506 33.5641C24.5752 32.206 24.5998 30.8425 24.5837 29.4812C24.5778 28.983 24.592 28.4842 24.5776 27.9862C24.5615 27.4253 24.2047 27.0864 23.6279 27.0676C23.3554 27.0586 23.0824 27.066 22.7828 27.066C22.7828 26.2788 22.7828 25.5124 22.7828 24.7133C22.961 24.7133 23.1287 24.7128 23.2963 24.7134C24.2959 24.717 24.5826 24.4432 24.5828 23.4829C24.5831 21.9988 24.5557 20.514 24.5962 19.031C24.6126 18.4314 24.6901 17.8062 24.8917 17.2441C25.3637 15.9277 26.4781 15.3901 27.8178 15.257C28.4474 15.1943 29.089 15.2462 29.748 15.2462C29.748 15.9694 29.748 16.7151 29.748 17.4702C29.4303 17.4983 29.1015 17.5025 28.7831 17.5606C28.0702 17.6907 27.6387 18.1478 27.5833 18.8564C27.542 19.3852 27.5513 19.9181 27.5491 20.4493C27.545 21.5014 27.5561 22.5536 27.5468 23.6056C27.5381 24.5777 27.3701 25.4758 26.2026 25.8886C27.3478 26.2908 27.5371 27.1655 27.5448 28.1222C27.5563 29.5509 27.5468 30.9796 27.5491 32.4083C27.5495 32.585 27.5593 32.7626 27.5804 32.9381C27.6746 33.7193 28.2214 34.2161 29.0348 34.2574C29.2615 34.269 29.4894 34.2592 29.7707 34.2592C29.7707 34.6094 29.7707 34.9472 29.7707 35.3181Z" fill="#FDFDFD"/>
<path d="M31.1349 3.80043C31.5811 2.74792 32.321 1.91258 33.2418 1.23971C33.7927 0.837114 34.3729 0.418961 35.0095 0.192149C36.1951 -0.23028 37.2964 0.0486429 38.1422 0.981157C38.9644 1.88775 39.0888 2.93336 38.5708 4.05418C38.2278 4.05451 38.5074 4.23758 38.4474 4.31021C38.4474 4.31021 38.4505 4.32946 38.4206 4.33154C38.3316 4.30646 38.2628 4.24484 38.2152 4.25765C37.8933 4.34444 37.5758 4.44645 37.2571 4.5447C37.1622 4.57398 37.0272 4.66239 36.9806 4.62959C36.5525 4.32854 36.0725 4.49154 35.6222 4.48418C34.1583 4.46022 32.6937 4.47521 31.2448 4.47521C31.1968 4.30373 31.1446 4.11711 31.0924 3.9305C31.0924 3.9305 31.0892 3.92694 31.1124 3.92805C31.1607 3.91419 31.1856 3.89921 31.2105 3.88424C31.1854 3.8563 31.1601 3.82836 31.1349 3.80043Z" fill="#694DF8"/>
<path d="M31.0736 3.94382C31.1446 4.11711 31.1968 4.30373 31.2448 4.47521C32.6937 4.47521 34.1583 4.46022 35.6222 4.48418C36.0725 4.49154 36.5525 4.32854 36.9806 4.62959C37.0272 4.66239 37.1622 4.57398 37.2571 4.5447C37.5758 4.44645 37.8933 4.34444 38.2152 4.25765C38.2628 4.24484 38.3316 4.30646 38.413 4.33796C38.3595 4.44928 38.2835 4.55627 38.182 4.66471C38.1519 4.66281 38.1475 4.65949 38.143 4.65616C38.1504 4.66479 38.1577 4.67341 38.165 4.68204C37.8118 5.19993 37.274 5.4383 36.688 5.6044C36.2335 5.73322 35.7795 5.86356 35.2806 5.99975C35.208 6.02928 35.1801 6.05225 35.1521 6.07524C34.9952 6.24063 34.8385 6.40602 34.6549 6.59826C34.614 6.64056 34.6068 6.65864 34.6069 6.67932C34.6069 6.67932 34.6066 6.71004 34.5845 6.73896C34.5568 6.80918 34.5513 6.85047 34.5458 6.89182C34.5428 6.93684 34.5397 6.98185 34.5152 7.06443C34.5261 7.17965 34.5584 7.25731 34.5908 7.33497C34.5908 7.33497 34.6085 7.35552 34.6021 7.39468C34.4593 7.4893 34.323 7.59235 34.1866 7.59249C33.2578 7.59315 32.3289 7.57334 31.4001 7.55738C31.1966 7.55392 30.9933 7.53936 30.7899 7.52992C30.7838 7.50093 30.7777 7.47188 30.7896 7.40505C30.7771 7.28976 30.7465 7.21217 30.7159 7.13464C30.7115 7.12387 30.707 7.1131 30.7162 7.0746C30.7057 7.00891 30.6816 6.97101 30.6575 6.93305C30.4859 5.90275 30.5933 4.90761 31.0736 3.94382ZM37.6424 4.6196C37.6663 4.61992 37.6904 4.62045 37.7142 4.61934C37.7148 4.61933 37.7152 4.59285 37.7146 4.5928C37.6908 4.59094 37.6668 4.59076 37.6424 4.6196Z" fill="#5D3FE8"/>
<path d="M30.7897 7.55432C30.9933 7.53936 31.1966 7.55392 31.4001 7.55738C32.3289 7.57334 33.2578 7.59315 34.1866 7.59249C34.323 7.59235 34.4593 7.4893 34.6036 7.40805C35.1483 7.81835 35.685 8.25459 36.2353 8.73125C36.2924 8.80113 36.336 8.83059 36.3795 8.86004C36.4862 8.96223 36.593 9.06443 36.7125 9.20632C36.7822 9.29767 36.8393 9.34934 36.8965 9.40093C36.9034 9.41017 36.9102 9.41935 36.9244 9.46749C37.0013 9.60126 37.071 9.69608 37.1407 9.79096C37.1407 9.79096 37.1526 9.81084 37.1463 9.84721C37.1372 9.97567 37.1062 10.0782 37.1372 10.1579C37.211 10.3479 37.3445 10.5194 37.3978 10.713C37.4619 10.9461 37.3686 11.0788 37.0764 11.0648C36.6127 11.0427 36.1472 11.059 35.7185 11.059C35.6018 10.9779 35.5114 10.886 35.4008 10.8438C35.0788 10.7205 34.7499 10.614 34.4216 10.5068C33.9734 10.3604 33.5234 10.2193 33.0742 10.076C33.0481 10.0694 33.0221 10.0628 32.9729 10.0255C32.8169 9.92852 32.684 9.86223 32.5512 9.79601C32.5512 9.79601 32.5469 9.79588 32.5395 9.77972C32.5179 9.74594 32.4993 9.73664 32.4762 9.73557C32.4651 9.73324 32.4539 9.73092 32.4242 9.69914C32.2721 9.57912 32.1385 9.48856 32.0048 9.398C31.9642 9.3619 31.9235 9.32586 31.8713 9.24967C31.7329 9.09269 31.6059 8.97573 31.4789 8.85878C31.4677 8.83451 31.4565 8.81024 31.4403 8.74927C31.4177 8.699 31.4 8.68537 31.3824 8.67181C31.3824 8.67181 31.3793 8.67068 31.3729 8.65406C31.3534 8.61848 31.3356 8.60632 31.3127 8.60106C31.3127 8.60106 31.2987 8.58158 31.2976 8.5514C31.2796 8.50465 31.2627 8.4881 31.2458 8.47148C31.0937 8.17387 30.9416 7.87633 30.7897 7.55432Z" fill="#5331D7"/>
<path d="M33.0854 10.0958C33.5234 10.2193 33.9734 10.3604 34.4216 10.5068C34.7499 10.614 35.0788 10.7205 35.4008 10.8438C35.5114 10.886 35.6018 10.9779 35.7185 11.059C36.1472 11.059 36.6127 11.0427 37.0764 11.0648C37.3686 11.0788 37.4619 10.9461 37.3978 10.713C37.3445 10.5194 37.211 10.3479 37.1372 10.1579C37.1062 10.0782 37.1372 9.97567 37.1461 9.85871C37.6641 10.3573 37.7606 11.9081 36.8963 12.7417C36.5277 13.0971 36.1005 13.3987 35.6809 13.6996C35.2209 14.0294 34.907 14.4362 34.8164 14.993C34.8043 15.0667 34.7742 15.1375 34.745 15.2343C34.4598 15.1648 34.4449 14.9448 34.4202 14.7469C34.3465 14.158 34.5437 13.6402 34.8787 13.1594C35.108 12.8301 35.341 12.5021 35.5478 12.1595C35.8729 11.621 35.7567 11.1902 35.1772 10.9269C34.7055 10.7124 34.1987 10.5717 33.7113 10.3889C33.5014 10.3102 33.3012 10.2075 33.0854 10.0958Z" fill="#411DB9"/>
<path d="M3.72117 43.0133C4.07723 43.087 4.36325 43.2601 4.57922 43.5325C4.79519 43.7991 4.90318 44.1055 4.90318 44.4516C4.90318 44.9509 4.72223 45.3481 4.36033 45.6431C4.00427 45.9324 3.50519 46.0771 2.86311 46.0771H0V40.1027H2.7668C3.39137 40.1027 3.87877 40.2417 4.229 40.5197C4.58506 40.7977 4.76309 41.175 4.76309 41.6516C4.76309 42.0034 4.66678 42.2955 4.47415 42.5282C4.28736 42.7608 4.03637 42.9225 3.72117 43.0133ZM1.49722 42.5197H2.47786C2.72302 42.5197 2.90981 42.4686 3.03822 42.3665C3.17248 42.2587 3.2396 42.1027 3.2396 41.8984C3.2396 41.6941 3.17248 41.5381 3.03822 41.4303C2.90981 41.3225 2.72302 41.2686 2.47786 41.2686H1.49722V42.5197ZM2.60044 44.9027C2.85143 44.9027 3.04406 44.8487 3.17831 44.741C3.3184 44.6275 3.38845 44.4658 3.38845 44.2559C3.38845 44.0459 3.31548 43.8814 3.16956 43.7622C3.02947 43.6431 2.83392 43.5835 2.58293 43.5835H1.49722V44.9027H2.60044ZM9.5978 45.0218H7.30381L6.93608 46.0771H5.36881L7.59275 40.1027H9.32638L11.5503 46.0771H9.96554L9.5978 45.0218ZM9.21255 43.8984L8.45081 41.7112L7.69782 43.8984H9.21255ZM15.3617 46.0771L14.0834 43.8218H13.7244V46.0771H12.2272V40.1027H14.7401C15.2246 40.1027 15.6361 40.1849 15.9746 40.3495C16.319 40.514 16.5758 40.741 16.7451 41.0303C16.9144 41.314 16.999 41.6317 16.999 41.9835C16.999 42.3807 16.8823 42.7353 16.6488 43.0473C16.4211 43.3594 16.0826 43.5807 15.6331 43.7112L17.0516 46.0771H15.3617ZM13.7244 42.792H14.6525C14.9269 42.792 15.1311 42.7268 15.2654 42.5963C15.4055 42.4658 15.4755 42.2814 15.4755 42.0431C15.4755 41.8162 15.4055 41.6374 15.2654 41.5069C15.1311 41.3764 14.9269 41.3112 14.6525 41.3112H13.7244V42.792ZM21.6601 43.0133C22.0161 43.087 22.3022 43.2601 22.5181 43.5325C22.7341 43.7991 22.8421 44.1055 22.8421 44.4516C22.8421 44.9509 22.6611 45.3481 22.2992 45.6431C21.9432 45.9324 21.4441 46.0771 20.802 46.0771H17.9389V40.1027H20.7057C21.3303 40.1027 21.8177 40.2417 22.1679 40.5197C22.5239 40.7977 22.702 41.175 22.702 41.6516C22.702 42.0034 22.6057 42.2955 22.413 42.5282C22.2262 42.7608 21.9753 42.9225 21.6601 43.0133ZM19.4361 42.5197H20.4167C20.6619 42.5197 20.8487 42.4686 20.9771 42.3665C21.1114 42.2587 21.1785 42.1027 21.1785 41.8984C21.1785 41.6941 21.1114 41.5381 20.9771 41.4303C20.8487 41.3225 20.6619 41.2686 20.4167 41.2686H19.4361V42.5197ZM20.5393 44.9027C20.7903 44.9027 20.9829 44.8487 21.1172 44.741C21.2573 44.6275 21.3273 44.4658 21.3273 44.2559C21.3273 44.0459 21.2544 43.8814 21.1084 43.7622C20.9684 43.6431 20.7728 43.5835 20.5218 43.5835H19.4361V44.9027H20.5393ZM26.6173 46.1367C26.0395 46.1367 25.5083 46.0062 25.0238 45.7452C24.5452 45.4842 24.1628 45.1211 23.8768 44.6559C23.5966 44.1849 23.4565 43.6572 23.4565 43.0729C23.4565 42.4885 23.5966 41.9636 23.8768 41.4984C24.1628 41.0332 24.5452 40.67 25.0238 40.409C25.5083 40.1481 26.0395 40.0176 26.6173 40.0176C27.1952 40.0176 27.7235 40.1481 28.2021 40.409C28.6866 40.67 29.066 41.0332 29.3404 41.4984C29.6205 41.9636 29.7606 42.4885 29.7606 43.0729C29.7606 43.6572 29.6205 44.1849 29.3404 44.6559C29.0602 45.1211 28.6807 45.4842 28.2021 45.7452C27.7235 46.0062 27.1952 46.1367 26.6173 46.1367ZM26.6173 44.809C27.1077 44.809 27.4987 44.6502 27.7906 44.3325C28.0883 44.0147 28.2371 43.5949 28.2371 43.0729C28.2371 42.5452 28.0883 42.1253 27.7906 41.8133C27.4987 41.4955 27.1077 41.3367 26.6173 41.3367C26.1212 41.3367 25.7243 41.4928 25.4266 41.8048C25.1347 42.1168 24.9888 42.5396 24.9888 43.0729C24.9888 43.6005 25.1347 44.0232 25.4266 44.341C25.7243 44.653 26.1212 44.809 26.6173 44.809ZM32.8175 46.1367C32.3681 46.1367 31.9653 46.0658 31.6092 45.9239C31.2532 45.7821 30.9671 45.5721 30.7512 45.2942C30.5411 45.0162 30.4302 44.6814 30.4185 44.2899H32.012C32.0353 44.5112 32.1141 44.6814 32.2484 44.8005C32.3827 44.914 32.5578 44.9707 32.7738 44.9707C32.9956 44.9707 33.1707 44.9225 33.2991 44.8261C33.4275 44.7239 33.4917 44.5849 33.4917 44.409C33.4917 44.2615 33.4392 44.1396 33.3341 44.0431C33.2349 43.9466 33.1094 43.8672 32.9576 43.8048C32.8117 43.7424 32.6016 43.6715 32.3272 43.592C31.9303 43.4729 31.6063 43.3537 31.3553 43.2346C31.1044 43.1154 30.8883 42.9396 30.7074 42.7069C30.5265 42.4743 30.436 42.1707 30.436 41.7963C30.436 41.2402 30.6432 40.8062 31.0576 40.4941C31.4721 40.1764 32.012 40.0176 32.6774 40.0176C33.3546 40.0176 33.9003 40.1764 34.3148 40.4941C34.7292 40.8062 34.951 41.2431 34.9802 41.8048H33.3604C33.3487 41.6119 33.2758 41.4615 33.1415 41.3537C33.0072 41.2402 32.835 41.1835 32.6249 41.1835C32.444 41.1835 32.298 41.2317 32.1871 41.3282C32.0762 41.419 32.0208 41.5523 32.0208 41.7282C32.0208 41.9211 32.1141 42.0715 32.3009 42.1793C32.4878 42.287 32.7796 42.4034 33.1765 42.5282C33.5735 42.6587 33.8945 42.7835 34.1396 42.9027C34.3906 43.0218 34.6066 43.1949 34.7876 43.4218C34.9685 43.6487 35.059 43.941 35.059 44.2984C35.059 44.6388 34.9685 44.9481 34.7876 45.2261C34.6124 45.5041 34.3556 45.7253 34.0171 45.8899C33.6785 46.0545 33.2786 46.1367 32.8175 46.1367ZM39.8066 45.0218H37.5126L37.1449 46.0771H35.5776L37.8016 40.1027H39.5352L41.7591 46.0771H40.1744L39.8066 45.0218ZM39.4214 43.8984L38.6596 41.7112L37.9066 43.8984H39.4214Z" fill="white"/>
<path d="M44.0375 43.0814C44.0375 42.4913 44.1689 41.9665 44.4315 41.5069C44.6942 41.0417 45.059 40.6814 45.526 40.4261C45.9988 40.1651 46.5329 40.0346 47.1283 40.0346C47.858 40.0346 48.4825 40.2218 49.002 40.5963C49.5215 40.9707 49.8688 41.4814 50.0439 42.1282H48.3979C48.2753 41.8785 48.1002 41.6885 47.8725 41.558C47.6507 41.4275 47.3968 41.3622 47.1108 41.3622C46.6497 41.3622 46.2761 41.5183 45.9901 41.8303C45.7041 42.1424 45.561 42.5594 45.561 43.0814C45.561 43.6034 45.7041 44.0204 45.9901 44.3325C46.2761 44.6445 46.6497 44.8005 47.1108 44.8005C47.3968 44.8005 47.6507 44.7353 47.8725 44.6048C48.1002 44.4743 48.2753 44.2842 48.3979 44.0346H50.0439C49.8688 44.6814 49.5215 45.192 49.002 45.5665C48.4825 45.9353 47.858 46.1197 47.1283 46.1197C46.5329 46.1197 45.9988 45.992 45.526 45.7367C45.059 45.4757 44.6942 45.1154 44.4315 44.6559C44.1689 44.1963 44.0375 43.6715 44.0375 43.0814ZM53.8677 46.1367C53.2898 46.1367 52.7587 46.0062 52.2742 45.7452C51.7956 45.4842 51.4132 45.1211 51.1272 44.6559C50.847 44.1849 50.7069 43.6572 50.7069 43.0729C50.7069 42.4885 50.847 41.9636 51.1272 41.4984C51.4132 41.0332 51.7956 40.67 52.2742 40.409C52.7587 40.1481 53.2898 40.0176 53.8677 40.0176C54.4456 40.0176 54.9739 40.1481 55.4525 40.409C55.937 40.67 56.3164 41.0332 56.5907 41.4984C56.8709 41.9636 57.011 42.4885 57.011 43.0729C57.011 43.6572 56.8709 44.1849 56.5907 44.6559C56.3105 45.1211 55.9311 45.4842 55.4525 45.7452C54.9739 46.0062 54.4456 46.1367 53.8677 46.1367ZM53.8677 44.809C54.358 44.809 54.7491 44.6502 55.041 44.3325C55.3387 44.0147 55.4875 43.5949 55.4875 43.0729C55.4875 42.5452 55.3387 42.1253 55.041 41.8133C54.7491 41.4955 54.358 41.3367 53.8677 41.3367C53.3716 41.3367 52.9746 41.4928 52.6769 41.8048C52.3851 42.1168 52.2392 42.5396 52.2392 43.0729C52.2392 43.6005 52.3851 44.0232 52.6769 44.341C52.9746 44.653 53.3716 44.809 53.8677 44.809ZM60.1467 40.1027C60.7946 40.1027 61.3608 40.2275 61.8453 40.4771C62.3298 40.7268 62.7034 41.0785 62.966 41.5324C63.2345 41.9807 63.3688 42.4998 63.3688 43.0899C63.3688 43.6743 63.2345 44.1934 62.966 44.6473C62.7034 45.1013 62.3269 45.453 61.8365 45.7027C61.352 45.9523 60.7888 46.0771 60.1467 46.0771H57.844V40.1027H60.1467ZM60.0504 44.8176C60.6166 44.8176 61.0573 44.6672 61.3725 44.3665C61.6877 44.0658 61.8453 43.6402 61.8453 43.0899C61.8453 42.5396 61.6877 42.1112 61.3725 41.8048C61.0573 41.4984 60.6166 41.3452 60.0504 41.3452H59.3412V44.8176H60.0504ZM65.7027 41.2686V42.4771H67.7077V43.6005H65.7027V44.9112H67.9704V46.0771H64.2055V40.1027H67.9704V41.2686H65.7027Z" fill="#9480FF"/>
<path d="M69.6429 46.1452C69.3802 46.1452 69.164 46.0715 68.9951 45.9239C68.8316 45.7707 68.7502 45.5835 68.7502 45.3622C68.7502 45.1353 68.8316 44.9452 68.9951 44.792C69.164 44.6388 69.3802 44.5622 69.6429 44.5622C69.9001 44.5622 70.1101 44.6388 70.2735 44.792C70.4425 44.9452 70.5273 45.1353 70.5273 45.3622C70.5273 45.5835 70.4425 45.7707 70.2735 45.9239C70.1101 46.0715 69.9001 46.1452 69.6429 46.1452Z" fill="#947FFF"/>
</svg>
