<svg width="26" height="26" viewBox="0 0 26 26" fill="none" xmlns="http://www.w3.org/2000/svg">
<path d="M12.9998 15.651C11.6923 15.651 10.6324 14.464 10.6324 12.9998C10.6324 11.5356 11.6923 10.3486 12.9998 10.3486C14.3073 10.3486 15.3672 11.5356 15.3672 12.9998C15.3672 14.464 14.3073 15.651 12.9998 15.651Z" fill="white"/>
<path d="M4.00799 8.62791C4.46486 8.44186 4.94249 8.25581 5.44089 8.09302C5.31629 7.53488 5.21246 6.97674 5.12939 6.44186C4.69329 3.37209 5.17093 1.2093 6.5 0.372093C6.89457 0.116279 7.33067 0 7.82907 0C9.28275 0 11.131 1.2093 13 3.23256C14.869 1.2093 16.7173 0 18.1709 0C18.6693 0 19.1054 0.116279 19.5 0.372093C20.8291 1.23256 21.3067 3.39535 20.8706 6.44186C20.7875 6.97674 20.6837 7.53488 20.5591 8.09302C21.0575 8.25581 21.5351 8.4186 21.992 8.62791C24.5879 9.74419 26 11.2791 26 13C26 14.7209 24.5671 16.2558 21.992 17.3721C21.5351 17.5581 21.0575 17.7442 20.5591 17.907C20.6837 18.4651 20.7875 19.0233 20.8706 19.5581C21.3067 22.6279 20.8291 24.7907 19.5 25.6279C19.1054 25.8837 18.6693 26 18.1709 26C16.6965 26 14.8482 24.7907 13 22.7674C11.131 24.7907 9.28275 26 7.82907 26C7.33067 26 6.89457 25.8837 6.5 25.6279C5.17093 24.7674 4.69329 22.6047 5.12939 19.5581C5.21246 19.0233 5.31629 18.4651 5.44089 17.907C4.94249 17.7442 4.46486 17.5814 4.00799 17.3721C1.41214 16.2558 -1.88792e-07 14.7209 -1.88792e-07 13C-1.88792e-07 11.2791 1.41214 9.74419 4.00799 8.62791ZM7.08147 1.53488C6.23003 2.09302 5.9393 3.81395 6.29233 6.25581C6.35463 6.74419 6.45847 7.25581 6.58307 7.7907C7.66294 7.51163 8.80511 7.32558 10.0096 7.2093C10.7157 6.09302 11.4425 5.09302 12.1693 4.18605C10.6326 2.48837 9.07508 1.32558 7.80831 1.32558C7.53834 1.32558 7.28914 1.39535 7.08147 1.53488ZM9.40735 15.3256C9.78115 16.0698 10.2173 16.814 10.6741 17.5581C11.4425 17.6279 12.2109 17.6512 13 17.6512C13.8099 17.6512 14.5783 17.6279 15.3259 17.5581C15.7827 16.814 16.1981 16.0698 16.5719 15.3256C16.9665 14.5581 17.3403 13.7674 17.6725 13C17.3403 12.2326 16.9665 11.4419 16.5719 10.6744C16.1981 9.93023 15.762 9.18605 15.3051 8.44186C14.5367 8.37209 13.7684 8.34884 12.9792 8.34884C12.1693 8.34884 11.401 8.37209 10.6534 8.44186C10.1965 9.18605 9.78115 9.93023 9.40735 10.6744C9.01278 11.4419 8.63898 12.2326 8.30671 13C8.65974 13.7674 9.01278 14.5349 9.40735 15.3256ZM7.68371 14.5581C7.3722 15.3721 7.123 16.1628 6.89457 16.9535C7.60064 17.1395 8.34824 17.2791 9.13738 17.3953C8.88818 16.9535 8.61821 16.4884 8.38978 16C8.14058 15.5116 7.91214 15.0233 7.68371 14.5581ZM13 20.8605C13.4984 20.2558 13.976 19.6047 14.4329 18.9302C13.9553 18.9535 13.4776 18.9767 13 18.9767C12.5224 18.9767 12.0447 18.9535 11.5671 18.9302C12.024 19.6047 12.5016 20.2558 13 20.8605ZM16.8626 17.3721C17.6518 17.2558 18.3994 17.1163 19.1054 16.9302C18.877 16.1628 18.6278 15.3488 18.3163 14.5349C18.0879 15 17.8594 15.4884 17.6102 15.9535C17.361 16.4651 17.1118 16.907 16.8626 17.3721ZM18.3163 11.4419C18.6278 10.6279 18.877 9.83721 19.1054 9.04651C18.3994 8.86047 17.6518 8.72093 16.8626 8.60465C17.1118 9.04651 17.3818 9.51163 17.6102 10C17.8594 10.4884 18.0879 10.9767 18.3163 11.4419ZM13 5.13953C12.5016 5.74419 12.024 6.39535 11.5671 7.06977C12.0447 7.04651 12.5224 7.02326 13 7.02326C13.4776 7.02326 13.9553 7.04651 14.4329 7.06977C13.976 6.39535 13.4984 5.74419 13 5.13953ZM8.38978 10.0233L9.13738 8.62791C8.34824 8.74419 7.60064 8.88372 6.89457 9.06977C7.123 9.83721 7.3722 10.6512 7.68371 11.4651C7.91214 10.9767 8.14058 10.4884 8.38978 10.0233ZM19.7077 6.25581C20.0607 3.81395 19.77 2.09302 18.9185 1.53488C18.7109 1.39535 18.4617 1.32558 18.1917 1.32558C16.9457 1.32558 15.3882 2.46512 13.8307 4.18605C14.5575 5.06977 15.2843 6.09302 15.9904 7.2093C17.1949 7.32558 18.3371 7.53488 19.4169 7.7907C19.5415 7.25581 19.6246 6.74419 19.7077 6.25581ZM24.8371 13C24.8371 11.907 23.6534 10.7442 21.5767 9.88372C21.1613 9.69767 20.7045 9.53488 20.2476 9.39535C19.9153 10.5581 19.5 11.7907 19.0016 13.0233C19.5 14.2558 19.9361 15.4651 20.2476 16.6279C23.1134 15.6977 24.8371 14.3023 24.8371 13ZM18.9185 24.4651C19.77 23.907 20.0607 22.186 19.7077 19.7442C19.6454 19.2558 19.5415 18.7442 19.4169 18.2093C18.3371 18.4884 17.1949 18.6744 15.9904 18.7907C15.2843 19.907 14.5575 20.907 13.8307 21.814C15.3674 23.5116 16.9249 24.6744 18.1917 24.6744C18.4617 24.6744 18.7109 24.6047 18.9185 24.4651ZM6.29233 19.7442C5.9393 22.186 6.23003 23.907 7.08147 24.4651C7.28914 24.6047 7.53834 24.6744 7.80831 24.6744C9.05431 24.6744 10.6118 23.5349 12.1693 21.814C11.4425 20.9302 10.7157 19.907 10.0096 18.7907C8.80511 18.6744 7.66294 18.4651 6.58307 18.2093C6.45847 18.7442 6.3754 19.2558 6.29233 19.7442ZM4.42332 16.1163C4.83866 16.3023 5.29553 16.4651 5.7524 16.6047C6.08466 15.4419 6.5 14.2093 6.9984 12.9767C6.5 11.7442 6.0639 10.5349 5.7524 9.37209C2.88658 10.3023 1.16294 11.6977 1.16294 13C1.16294 14.093 2.36741 15.2558 4.42332 16.1163Z" fill="white"/>
</svg>
